<?xml version="1.0" encoding="UTF-8" standalone="no"?>
<!-- Generator: Adobe Illustrator 19.0.0, SVG Export Plug-In . SVG Version: 6.00 Build 0)  -->

<svg
   xmlns:dc="http://purl.org/dc/elements/1.1/"
   xmlns:cc="http://creativecommons.org/ns#"
   xmlns:rdf="http://www.w3.org/1999/02/22-rdf-syntax-ns#"
   xmlns:svg="http://www.w3.org/2000/svg"
   xmlns="http://www.w3.org/2000/svg"
   xmlns:sodipodi="http://sodipodi.sourceforge.net/DTD/sodipodi-0.dtd"
   xmlns:inkscape="http://www.inkscape.org/namespaces/inkscape"
   version="1.1"
   id="Capa_1"
   x="0px"
   y="0px"
   viewBox="0 0 508.52 508.52"
   style="enable-background:new 0 0 508.52 508.52;"
   xml:space="preserve"
   inkscape:version="0.48.5 r10040"
   width="100%"
   height="100%"
   sodipodi:docname="folder.svg"><metadata
     id="metadata6275"><rdf:RDF><cc:Work
         rdf:about=""><dc:format>image/svg+xml</dc:format><dc:type
           rdf:resource="http://purl.org/dc/dcmitype/StillImage" /></cc:Work></rdf:RDF></metadata><defs
     id="defs6273" /><sodipodi:namedview
     pagecolor="#ffffff"
     bordercolor="#666666"
     borderopacity="1"
     objecttolerance="10"
     gridtolerance="10"
     guidetolerance="10"
     inkscape:pageopacity="0"
     inkscape:pageshadow="2"
     inkscape:window-width="640"
     inkscape:window-height="480"
     id="namedview6271"
     showgrid="false"
     inkscape:zoom="0.46409187"
     inkscape:cx="254.26"
     inkscape:cy="254.26"
     inkscape:window-x="0"
     inkscape:window-y="405"
     inkscape:window-maximized="0"
     inkscape:current-layer="Capa_1" /><g
     id="g6233"
     style="fill:#e6e6e6"><g
       id="g6235"
       style="fill:#e6e6e6"><g
         id="g6237"
         style="fill:#e6e6e6"><path
           style="fill:#e6e6e6"
           d="M476.737,47.674h-143.53c-17.576,0-37.758,8.931-47.165,31.782c0,0-4.132,29.145-31.782,31.782     H31.782C14.239,111.239,0,124.969,0,142.513v286.551c0,17.544,14.239,31.783,31.782,31.783h444.955     c17.544,0,31.782-14.239,31.782-31.783V79.456C508.52,61.912,494.281,47.674,476.737,47.674z M476.737,142.513v286.551H31.782     V143.021H254.26l3.051-0.159c29.812-2.829,48.246-23.678,56.732-45.131c8.263-20.754,22.661-18.275,22.661-18.275h140.034     V142.513z"
           id="path6239" /></g></g></g><g
     id="g6241" /><g
     id="g6243" /><g
     id="g6245" /><g
     id="g6247" /><g
     id="g6249" /><g
     id="g6251" /><g
     id="g6253" /><g
     id="g6255" /><g
     id="g6257" /><g
     id="g6259" /><g
     id="g6261" /><g
     id="g6263" /><g
     id="g6265" /><g
     id="g6267" /><g
     id="g6269" /></svg>