<?xml version="1.0" encoding="UTF-8" standalone="no"?>
<svg
   xmlns:dc="http://purl.org/dc/elements/1.1/"
   xmlns:cc="http://creativecommons.org/ns#"
   xmlns:rdf="http://www.w3.org/1999/02/22-rdf-syntax-ns#"
   xmlns:svg="http://www.w3.org/2000/svg"
   xmlns="http://www.w3.org/2000/svg"
   xmlns:sodipodi="http://sodipodi.sourceforge.net/DTD/sodipodi-0.dtd"
   xmlns:inkscape="http://www.inkscape.org/namespaces/inkscape"
   height="1024"
   width="1024"
   id="svg7362"
   version="1.1"
   inkscape:version="0.48.5 r10040"
   sodipodi:docname="repo-pull.svg">
  <metadata
     id="metadata7370">
    <rdf:RDF>
      <cc:Work
         rdf:about="">
        <dc:format>image/svg+xml</dc:format>
        <dc:type
           rdf:resource="http://purl.org/dc/dcmitype/StillImage" />
      </cc:Work>
    </rdf:RDF>
  </metadata>
  <defs
     id="defs7368" />
  <sodipodi:namedview
     pagecolor="#ffffff"
     bordercolor="#666666"
     borderopacity="1"
     objecttolerance="10"
     gridtolerance="10"
     guidetolerance="10"
     inkscape:pageopacity="0"
     inkscape:pageshadow="2"
     inkscape:window-width="640"
     inkscape:window-height="480"
     id="namedview7366"
     showgrid="false"
     inkscape:zoom="0.23046875"
     inkscape:cx="512"
     inkscape:cy="512"
     inkscape:window-x="0"
     inkscape:window-y="405"
     inkscape:window-maximized="0"
     inkscape:current-layer="svg7362" />
  <path
     d="M832 512V384H448V256h384V128l192 192-192 192zM256 128h-64v64h64v-64z m448 320h64v384c0 35-29 64-64 64H384v128l-96-96-96 96V896H64c-35 0-64-29-64-64V64C0 29 29 0 64 0h640c35 0 64 29 64 64v128h-64V64H128v576h576V448z m0 256H64v128h128v-64h192v64h320V704zM256 384h-64v64h64v-64z m0-128h-64v64h64v-64z m-64 320h64v-64h-64v64z"
     id="path7364"
     style="fill:#e6e6e6" />
</svg>
